{"title":"Barter.Kings.S02E06.TVRip.x264 [Crad].mkv","uid":8151764,"size":356902478,"categoryP":"video","categoryS":"tv_shows","magnet":"?xt=urn:btih:c687b1a9b11eb8854bf07c39f68f4d4a09254dc3&amp;dn=Barter.Kings.S02E06.TVRip.x264+%5BCrad%5D.mkv&amp;tr=udp%3A%2F%2Ftracker.openbittorrent.com%3A80&amp;tr=udp%3A%2F%2Fopen.demonii.com%3A1337&amp;tr=udp%3A%2F%2Ftracker.coppersurfer.tk%3A6969&amp;tr=udp%3A%2F%2Fexodus.desync.com%3A6969","seeders":1,"leechers":1,"uploader":"craddle","files":1,"time":1361057248,"description":"Barter Kings Season 2 Episode 6.\n\nI only uploaded this because the other version is missing the last 15 minutes.\n\n\n\nFormat                                   : Matroska\nFormat version                           : Version 2\nFile size                                : 340 MiB\nDuration                                 : 43mn 0s\nOverall bit rate                         : 1 107 Kbps\n\nVideo\nID                                       : 1\nFormat                                   : AVC\nFormat/Info                              : Advanced Video Codec\nFormat profile                           : &lt;a class=&quot;__cf_email__&quot; href=&quot;/cdn-cgi/l/email-protection&quot; data-cfemail=&quot;7d35141a153d314e534d&quot;&gt;[email&amp;#160;protected]&lt;/a&gt;&lt;script cf-hash='f9e31' type=&quot;text/javascript&quot;&gt;\n/* &lt;![CDATA[ */!function(){try{var t=&quot;currentScript&quot;in document?document.currentScript:function(){for(var t=document.getElementsByTagName(&quot;script&quot;),e=t.length;e--;)if(t[e].getAttribute(&quot;cf-hash&quot;))return t[e]}();if(t&amp;&amp;t.previousSibling){var e,r,n,i,c=t.previousSibling,a=c.getAttribute(&quot;data-cfemail&quot;);if(a){for(e=&quot;&quot;,r=parseInt(a.substr(0,2),16),n=2;a.length-n;n+=2)i=parseInt(a.substr(n,2),16)^r,e+=String.fromCharCode(i);e=document.createTextNode(e),c.parentNode.replaceChild(e,c)}}}catch(u){}}();/* ]]&gt; */&lt;/script&gt;\nFormat settings, CABAC                   : Yes\nFormat settings, ReFrames                : 3 frames\nCodec ID                                 : V_MPEG4/ISO/AVC\nDuration                                 : 43mn 0s\nBit rate                                 : 975 Kbps\nWidth                                    : 704 pixels\nHeight                                   : 384 pixels\nDisplay aspect ratio                     : 16:9\nFrame rate mode                          : Variable\nFrame rate                               : 29.970 fps\nColor space                              : YUV\nChroma subsampling                       : 4:2:0\nBit depth                                : 8 bits\nScan type                                : Progressive\nBits/(Pixel*Frame)                       : 0.120\nStream size                              : 294 MiB (86%)\nWriting library                          : x264 core 129\n\nAudio\nID                                       : 2\nFormat                                   : AC-3\nFormat/Info                              : Audio Coding 3\nMode extension                           : CM (complete main)\nCodec ID                                 : A_AC3\nDuration                                 : 43mn 0s\nBit rate mode                            : Constant\nBit rate                                 : 128 Kbps\nChannel(s)                               : 2 channels\nChannel positions                        : Front: L R\nSampling rate                            : 48.0 KHz\nBit depth                                : 16 bits\nCompression mode                         : Lossy\nDelay relative to video                  : -33ms\nStream size                              : 39.4 MiB (12%)\nDefault                                  : Yes\nForced                                   : No\n","torrent":{"xt":"urn:btih:c687b1a9b11eb8854bf07c39f68f4d4a09254dc3","amp;dn":"Barter.Kings.S02E06.TVRip.x264+%5BCrad%5D.mkv","amp;tr":["udp%3A%2F%2Ftracker.openbittorrent.com%3A80","udp%3A%2F%2Fopen.demonii.com%3A1337","udp%3A%2F%2Ftracker.coppersurfer.tk%3A6969","udp%3A%2F%2Fexodus.desync.com%3A6969"],"infoHash":"c687b1a9b11eb8854bf07c39f68f4d4a09254dc3","infoHashBuffer":{"type":"Buffer","data":[198,135,177,169,177,30,184,133,75,240,124,57,246,143,77,74,9,37,77,195]},"announce":[],"urlList":[]}}